<?xml version="1.0" encoding="UTF-8"?>
<svg xmlns="http://www.w3.org/2000/svg" xmlns:xlink="http://www.w3.org/1999/xlink" width="108pt" height="72.62pt" viewBox="0 0 108 72.62" version="1.1">
<g id="surface1">
<path style=" stroke:none;fill-rule:nonzero;fill:rgb(19.999695%,16.470337%,52.548218%);fill-opacity:1;" d="M 79.257813 0 C 79.257813 0.859375 79.257813 12.238281 79.257813 13.097656 C 80.113281 13.097656 88.464844 13.097656 88.464844 13.097656 L 78.1875 51.347656 C 78.1875 51.347656 65.609375 0.714844 65.429688 0 C 64.742188 0 52.804688 0 52.128906 0 C 51.941406 0.695313 38.332031 51.351563 38.332031 51.351563 L 28.867188 13.097656 C 28.867188 13.097656 37.59375 13.097656 38.453125 13.097656 C 38.453125 12.238281 38.453125 0.859375 38.453125 0 C 37.53125 0 0.917969 0 0 0 C 0 0.859375 0 12.238281 0 13.097656 C 0.851563 13.097656 8.519531 13.097656 8.519531 13.097656 C 8.519531 13.097656 23.222656 71.90625 23.402344 72.621094 C 24.109375 72.621094 43.34375 72.621094 44.039063 72.621094 C 44.222656 71.921875 53.890625 35.164063 53.890625 35.164063 C 53.890625 35.164063 63.078125 71.914063 63.257813 72.621094 C 63.964844 72.621094 83.199219 72.621094 83.894531 72.621094 C 84.082031 71.917969 99.550781 13.097656 99.550781 13.097656 C 99.550781 13.097656 107.148438 13.097656 108 13.097656 C 108 12.238281 108 0.859375 108 0 C 107.09375 0 80.167969 0 79.257813 0 "/>
</g>
</svg>
